<?xml version="1.0"?>
<svg xmlns="http://www.w3.org/2000/svg" xmlns:xlink="http://www.w3.org/1999/xlink" xmlns:svgjs="http://svgjs.com/svgjs" version="1.1" width="24" height="24" x="0" y="0" viewBox="0 0 512 512" style="enable-background:new 0 0 512 512" xml:space="preserve" class=""><g>
<g xmlns="http://www.w3.org/2000/svg">
	<g>
		<path d="M507.296,4.704c-3.36-3.36-8.032-5.056-12.768-4.64L370.08,11.392c-6.176,0.576-11.488,4.672-13.6,10.496    s-0.672,12.384,3.712,16.768l33.952,33.952L224.448,242.272c-6.24,6.24-6.24,16.384,0,22.624l22.624,22.624    c6.272,6.272,16.384,6.272,22.656,0.032l169.696-169.696l33.952,33.952c4.384,4.384,10.912,5.824,16.768,3.744    c2.24-0.832,4.224-2.112,5.856-3.744c2.592-2.592,4.288-6.048,4.608-9.888l11.328-124.448    C512.352,12.736,510.656,8.064,507.296,4.704z" fill="#ffffff" data-original="#000000" style="" class=""/>
	</g>
</g>
<g xmlns="http://www.w3.org/2000/svg">
	<g>
		<path d="M448,192v256H64V64h256V0H32C14.304,0,0,14.304,0,32v448c0,17.664,14.304,32,32,32h448c17.664,0,32-14.336,32-32V192H448z    " fill="#ffffff" data-original="#000000" style="" class=""/>
	</g>
</g>
<g xmlns="http://www.w3.org/2000/svg">
</g>
<g xmlns="http://www.w3.org/2000/svg">
</g>
<g xmlns="http://www.w3.org/2000/svg">
</g>
<g xmlns="http://www.w3.org/2000/svg">
</g>
<g xmlns="http://www.w3.org/2000/svg">
</g>
<g xmlns="http://www.w3.org/2000/svg">
</g>
<g xmlns="http://www.w3.org/2000/svg">
</g>
<g xmlns="http://www.w3.org/2000/svg">
</g>
<g xmlns="http://www.w3.org/2000/svg">
</g>
<g xmlns="http://www.w3.org/2000/svg">
</g>
<g xmlns="http://www.w3.org/2000/svg">
</g>
<g xmlns="http://www.w3.org/2000/svg">
</g>
<g xmlns="http://www.w3.org/2000/svg">
</g>
<g xmlns="http://www.w3.org/2000/svg">
</g>
<g xmlns="http://www.w3.org/2000/svg">
</g>
</g></svg>
