<svg width="28" height="27" viewBox="0 0 28 27" fill="none" xmlns="http://www.w3.org/2000/svg">
    <g clip-path="url(#clip0)">
        <path d="M14 0.5625C6.265 0.5625 0 6.5025 0 13.8285C0 19.6909 4.011 24.6623 9.5725 26.415C10.2725 26.5399 10.5292 26.1293 10.5292 25.7771C10.5292 25.4621 10.5175 24.6274 10.5117 23.5215C6.61733 24.3214 5.796 21.7418 5.796 21.7418C5.159 20.2106 4.2385 19.8011 4.2385 19.8011C2.97033 18.9788 4.3365 18.9956 4.3365 18.9956C5.74233 19.0879 6.48083 20.3625 6.48083 20.3625C7.72917 22.3909 9.758 21.8048 10.5583 21.4661C10.6843 20.6078 11.0448 20.0239 11.445 19.692C8.33583 19.3601 5.068 18.2194 5.068 13.1366C5.068 11.6888 5.6105 10.5053 6.50883 9.57713C6.35133 9.24188 5.87883 7.893 6.63133 6.066C6.63133 6.066 7.80383 5.7105 10.4813 7.42613C11.6013 7.13138 12.7913 6.98513 13.9813 6.97838C15.1713 6.98513 16.3613 7.13138 17.4813 7.42613C20.1413 5.7105 21.3138 6.066 21.3138 6.066C22.0663 7.893 21.5938 9.24188 21.4538 9.57713C22.3463 10.5053 22.8888 11.6888 22.8888 13.1366C22.8888 18.2329 19.6163 19.3545 16.5013 19.6808C16.9913 20.079 17.4463 20.8924 17.4463 22.1355C17.4463 23.9108 17.4288 25.3373 17.4288 25.7681C17.4288 26.1158 17.6738 26.5309 18.3913 26.3981C23.9925 24.6566 28 19.6819 28 13.8285C28 6.5025 21.7315 0.5625 14 0.5625Z"
              fill="white"/>
    </g>
    <defs>
        <clipPath id="clip0">
            <rect width="28" height="27" fill="white"/>
        </clipPath>
    </defs>
</svg>
