<svg width="23" height="23" viewBox="0 0 23 23" fill="none" xmlns="http://www.w3.org/2000/svg">
    <g clip-path="url(#clip0)">
        <path d="M22.9728 1.71712C22.923 0.803499 22.1964 0.0769779 21.2828 0.0271146C19.4393 -0.0736003 15.8319 0.0243744 12.3824 1.80854C10.6239 2.71811 8.76416 4.26024 7.27999 6.0395C7.2617 6.06143 7.24391 6.08348 7.22577 6.10545L3.85752 6.36564C3.3031 6.40849 2.80927 6.69909 2.50263 7.16286L0.204701 10.6386C-0.0278599 10.9903 -0.0648306 11.4305 0.105738 11.8161C0.276351 12.2017 0.626921 12.4704 1.04357 12.5349L3.88133 12.9745C3.87131 13.0296 3.86125 13.0847 3.85204 13.1399C3.75757 13.705 3.94481 14.286 4.35297 14.6942L8.30573 18.647C8.64413 18.9854 9.10139 19.1719 9.56992 19.1719C9.66642 19.1719 9.76345 19.164 9.86003 19.1478C9.91519 19.1386 9.97031 19.1286 10.0255 19.1186L10.465 21.9564C10.5295 22.373 10.7983 22.7236 11.1838 22.8942C11.3442 22.9652 11.514 23.0002 11.683 23.0002C11.9203 23.0002 12.1559 22.9311 12.3613 22.7953L15.837 20.4973C16.3008 20.1906 16.5914 19.6968 16.6342 19.1424L16.8943 15.7742C16.9163 15.7561 16.9384 15.7383 16.9603 15.72C18.7396 14.2358 20.2818 12.376 21.1913 10.6175C22.9756 7.16794 23.0734 3.56049 22.9728 1.71712ZM15.0938 19.3731L11.7691 21.5712L11.3407 18.8056C12.7459 18.3925 14.1359 17.7308 15.4601 16.8443L15.2906 19.0385C15.2801 19.1754 15.2083 19.2974 15.0938 19.3731ZM9.25866 17.694L5.30585 13.7412C5.205 13.6403 5.15837 13.4986 5.18124 13.3621C5.29875 12.6594 5.48136 11.9904 5.70741 11.3603L11.6384 17.2912C10.8815 17.5623 10.2036 17.724 9.6378 17.8186C9.50106 17.8414 9.35951 17.7949 9.25866 17.694ZM3.96134 7.70929L6.1555 7.5398C5.26901 8.86406 4.60731 10.2541 4.19417 11.6592L1.4286 11.2309L3.6268 7.90614C3.70254 7.79159 3.82451 7.71985 3.96134 7.70929ZM16.0972 14.685C15.0086 15.593 13.9519 16.2498 12.9779 16.725L6.27463 10.0217C6.89716 8.75027 7.65693 7.6915 8.31485 6.90277C9.68834 5.25616 11.3966 3.83568 13.0016 3.00552C16.1674 1.36799 19.5029 1.27981 21.2094 1.3727C21.4353 1.38501 21.6149 1.56466 21.6272 1.79057C21.7203 3.49706 21.6319 6.83251 19.9944 9.99838C19.1642 11.6033 17.7438 13.3115 16.0972 14.685Z"
              fill="black"/>
        <mask id="path-2-inside-1" fill="white">
            <path d="M15.755 10.6125C16.6176 10.6124 17.4806 10.284 18.1373 9.6273C18.7737 8.99098 19.124 8.14492 19.124 7.24505C19.124 6.34518 18.7736 5.49912 18.1373 4.8628C16.8237 3.54915 14.6863 3.54924 13.3728 4.8628C12.7364 5.49912 12.386 6.34518 12.386 7.24505C12.386 8.14492 12.7365 8.99098 13.3728 9.6273C14.0296 10.2841 14.8921 10.6126 15.755 10.6125ZM14.3256 5.81568C14.7197 5.42158 15.2373 5.22455 15.7549 5.22455C16.2726 5.22455 16.7903 5.42158 17.1843 5.81568C17.5661 6.19747 17.7763 6.70509 17.7763 7.245C17.7763 7.78492 17.5661 8.29258 17.1843 8.67437C16.3962 9.46253 15.1137 9.46248 14.3256 8.67437C13.9438 8.29258 13.7335 7.78497 13.7335 7.24505C13.7335 6.70513 13.9438 6.19747 14.3256 5.81568Z"/>
        </mask>
        <path d="M15.755 10.6125C16.6176 10.6124 17.4806 10.284 18.1373 9.6273C18.7737 8.99098 19.124 8.14492 19.124 7.24505C19.124 6.34518 18.7736 5.49912 18.1373 4.8628C16.8237 3.54915 14.6863 3.54924 13.3728 4.8628C12.7364 5.49912 12.386 6.34518 12.386 7.24505C12.386 8.14492 12.7365 8.99098 13.3728 9.6273C14.0296 10.2841 14.8921 10.6126 15.755 10.6125ZM14.3256 5.81568C14.7197 5.42158 15.2373 5.22455 15.7549 5.22455C16.2726 5.22455 16.7903 5.42158 17.1843 5.81568C17.5661 6.19747 17.7763 6.70509 17.7763 7.245C17.7763 7.78492 17.5661 8.29258 17.1843 8.67437C16.3962 9.46253 15.1137 9.46248 14.3256 8.67437C13.9438 8.29258 13.7335 7.78497 13.7335 7.24505C13.7335 6.70513 13.9438 6.19747 14.3256 5.81568Z"
              fill="black"/>
        <path d="M15.755 10.6125L15.7559 18.6125H15.7559L15.755 10.6125ZM18.1373 9.6273L12.4806 3.97025L12.4804 3.97045L18.1373 9.6273ZM18.1373 4.8628L12.4803 10.5196L12.4804 10.5197L18.1373 4.8628ZM13.3728 4.8628L19.0294 10.5199L19.0297 10.5196L13.3728 4.8628ZM14.3256 5.81568L19.9825 11.4725L19.9828 11.4722L14.3256 5.81568ZM17.1843 5.81568L11.5271 11.4722L11.5275 11.4725L17.1843 5.81568ZM17.1843 8.67437L11.5275 3.01752L11.5273 3.01768L17.1843 8.67437ZM14.3256 8.67437L8.66872 14.3312L8.66889 14.3314L14.3256 8.67437ZM15.7559 18.6125C18.645 18.6122 21.5715 17.5068 23.7941 15.2842L12.4804 3.97045C13.3896 3.06128 14.5902 2.6126 15.7542 2.61248L15.7559 18.6125ZM23.7939 15.2844C25.931 13.1474 27.124 10.2663 27.124 7.24505H11.124C11.124 6.0235 11.6163 4.83453 12.4806 3.97025L23.7939 15.2844ZM27.124 7.24505C27.124 4.22351 25.9308 1.3426 23.7941 -0.794057L12.4804 10.5197C11.6164 9.65563 11.124 8.46684 11.124 7.24505H27.124ZM23.7942 -0.79396C19.3563 -5.23207 12.1534 -5.2317 7.71584 -0.79396L19.0297 10.5196C17.2192 12.3302 14.2911 12.3304 12.4803 10.5196L23.7942 -0.79396ZM7.71613 -0.794257C5.57926 1.34246 4.38599 4.22347 4.38599 7.24505H20.386C20.386 8.46688 19.8936 9.65577 19.0294 10.5199L7.71613 -0.794257ZM4.38599 7.24505C4.38599 10.2669 5.57947 13.1477 7.71593 15.2842L19.0296 3.97045C19.8935 4.83427 20.386 6.02298 20.386 7.24505H4.38599ZM7.71593 15.2842C9.93776 17.506 12.8639 18.6128 15.7559 18.6125L15.7542 2.61248C16.9204 2.61236 18.1215 3.06232 19.0296 3.97045L7.71593 15.2842ZM19.9828 11.4722C18.8112 12.6439 17.265 13.2246 15.7549 13.2246V-2.77545C13.2096 -2.77545 10.6281 -1.80075 8.66845 0.159148L19.9828 11.4722ZM15.7549 13.2246C14.245 13.2246 12.6988 12.644 11.5271 11.4722L22.8415 0.159148C20.8817 -1.80082 18.3002 -2.77545 15.7549 -2.77545V13.2246ZM11.5275 11.4725C10.4088 10.3539 9.77634 8.82659 9.77634 7.245H25.7763C25.7763 4.58359 24.7234 2.04107 22.8412 0.158826L11.5275 11.4725ZM9.77634 7.245C9.77634 5.66361 10.4087 4.13632 11.5275 3.01752L22.8412 14.3312C24.7236 12.4488 25.7763 9.90623 25.7763 7.245H9.77634ZM11.5273 3.01768C13.8637 0.681132 17.6466 0.681782 19.9823 3.01736L8.66889 14.3314C12.5809 18.2432 18.9287 18.2439 22.8413 14.3311L11.5273 3.01768ZM19.9824 3.01752C21.1008 4.13587 21.7335 5.66302 21.7335 7.24505H5.73351C5.73351 9.90691 6.78679 12.4493 8.66872 14.3312L19.9824 3.01752ZM21.7335 7.24505C21.7335 8.82735 21.1006 10.3544 19.9825 11.4725L8.66877 0.158826C6.78703 2.04057 5.73351 4.58292 5.73351 7.24505H21.7335Z"
              fill="black" mask="url(#path-2-inside-1)"/>
        <mask id="path-4-inside-2" fill="white">
            <path d="M0.687356 18.9543C0.859811 18.9543 1.03227 18.8885 1.1638 18.7569L3.36376 16.5569C3.62691 16.2938 3.62691 15.8671 3.36376 15.604C3.10065 15.3408 2.67398 15.3408 2.41083 15.604L0.210914 17.8039C-0.0522383 18.0671 -0.0522383 18.4937 0.210914 18.7569C0.342445 18.8884 0.5149 18.9543 0.687356 18.9543Z"/>
        </mask>
        <path d="M0.687356 18.9543C0.859811 18.9543 1.03227 18.8885 1.1638 18.7569L3.36376 16.5569C3.62691 16.2938 3.62691 15.8671 3.36376 15.604C3.10065 15.3408 2.67398 15.3408 2.41083 15.604L0.210914 17.8039C-0.0522383 18.0671 -0.0522383 18.4937 0.210914 18.7569C0.342445 18.8884 0.5149 18.9543 0.687356 18.9543Z"
              fill="black"/>
        <path d="M1.1638 18.7569L-4.49306 13.1L-4.49499 13.102L1.1638 18.7569ZM3.36376 16.5569L9.02061 22.2138V22.2138L3.36376 16.5569ZM3.36376 15.604L-2.29358 21.2603L-2.2931 21.2608L3.36376 15.604ZM2.41083 15.604L-3.24603 9.94713L-3.24609 9.94719L2.41083 15.604ZM0.210914 17.8039L5.86777 23.4608L5.86783 23.4607L0.210914 17.8039ZM0.210914 18.7569L5.86874 13.101L5.86777 13.1L0.210914 18.7569ZM0.687356 26.9543C2.89393 26.9543 5.12915 26.1064 6.82259 24.4118L-4.49499 13.102C-3.06461 11.6706 -1.17431 10.9543 0.687356 10.9543V26.9543ZM6.82065 24.4137L9.02061 22.2138L-2.2931 10.9001L-4.49306 13.1L6.82065 24.4137ZM9.02061 22.2138C12.408 18.8264 12.408 13.3345 9.02061 9.94713L-2.2931 21.2608C-5.15414 18.3998 -5.15414 13.7611 -2.2931 10.9001L9.02061 22.2138ZM9.0211 9.94761C5.63342 6.55935 0.141051 6.56005 -3.24603 9.94713L8.06769 21.2608C5.20691 24.1216 0.56788 24.1223 -2.29358 21.2603L9.0211 9.94761ZM-3.24609 9.94719L-5.446 12.1471L5.86783 23.4607L8.06774 21.2608L-3.24609 9.94719ZM-5.44594 12.1471C-8.83329 15.5344 -8.83329 21.0264 -5.44594 24.4137L5.86777 13.1C8.72881 15.9611 8.72881 20.5998 5.86777 23.4608L-5.44594 12.1471ZM-5.44691 24.4128C-3.7547 26.1055 -1.52045 26.9543 0.687356 26.9543V10.9543C2.55025 10.9543 4.43959 11.6713 5.86874 13.101L-5.44691 24.4128Z"
              fill="black" mask="url(#path-4-inside-2)"/>
        <mask id="path-6-inside-3" fill="white">
            <path d="M5.37987 17.6201C5.11676 17.357 4.69009 17.357 4.42694 17.6201L0.197364 21.8497C-0.0657881 22.1129 -0.0657881 22.5395 0.197364 22.8027C0.32894 22.9343 0.501351 23 0.673806 23C0.846261 23 1.01872 22.9343 1.15025 22.8026L5.37982 18.5731C5.64302 18.3099 5.64302 17.8833 5.37987 17.6201Z"/>
        </mask>
        <path d="M5.37987 17.6201C5.11676 17.357 4.69009 17.357 4.42694 17.6201L0.197364 21.8497C-0.0657881 22.1129 -0.0657881 22.5395 0.197364 22.8027C0.32894 22.9343 0.501351 23 0.673806 23C0.846261 23 1.01872 22.9343 1.15025 22.8026L5.37982 18.5731C5.64302 18.3099 5.64302 17.8833 5.37987 17.6201Z"
              fill="black"/>
        <path d="M4.42694 17.6201L-1.22992 11.9633L-1.22995 11.9633L4.42694 17.6201ZM0.197364 21.8497L5.85422 27.5066L5.85425 27.5066L0.197364 21.8497ZM1.15025 22.8026L-4.50661 17.1458L-4.50854 17.1477L1.15025 22.8026ZM5.37982 18.5731L-0.276551 12.9157L-0.277034 12.9162L5.37982 18.5731ZM11.0372 11.9638C7.64953 8.57549 2.15716 8.57619 -1.22992 11.9633L10.0838 23.277C7.22302 26.1378 2.58399 26.1384 -0.277472 23.2765L11.0372 11.9638ZM-1.22995 11.9633L-5.45952 16.1929L5.85425 27.5066L10.0838 23.2769L-1.22995 11.9633ZM-5.45949 16.1929C-8.84684 19.5802 -8.84684 25.0722 -5.45949 28.4595L5.85422 17.1458C8.71526 20.0069 8.71526 24.6456 5.85422 27.5066L-5.45949 16.1929ZM-5.45949 28.4595C-3.76725 30.1518 -1.53345 31 0.673806 31V15C2.53615 15 4.42513 15.7167 5.85422 17.1458L-5.45949 28.4595ZM0.673806 31C2.88042 31 5.11562 30.1521 6.80903 28.4576L-4.50854 17.1477C-3.07819 15.7164 -1.1879 15 0.673806 15V31ZM6.8071 28.4595L11.0367 24.2299L-0.277034 12.9162L-4.50661 17.1458L6.8071 28.4595ZM11.0362 24.2304C14.4241 20.843 14.4241 15.3507 11.0367 11.9633L-0.276989 23.277C-3.13811 20.4159 -3.13811 15.7768 -0.276551 12.9157L11.0362 24.2304Z"
              fill="black" mask="url(#path-6-inside-3)"/>
        <mask id="path-8-inside-4" fill="white">
            <path d="M6.4431 19.6362L4.24314 21.8362C3.97999 22.0994 3.97999 22.526 4.24314 22.7891C4.37472 22.9207 4.54717 22.9865 4.71958 22.9865C4.89199 22.9865 5.06449 22.9208 5.19602 22.7891L7.39598 20.5892C7.65913 20.326 7.65913 19.8994 7.39598 19.6362C7.13287 19.3731 6.7062 19.3731 6.4431 19.6362Z"/>
        </mask>
        <path d="M6.4431 19.6362L4.24314 21.8362C3.97999 22.0994 3.97999 22.526 4.24314 22.7891C4.37472 22.9207 4.54717 22.9865 4.71958 22.9865C4.89199 22.9865 5.06449 22.9208 5.19602 22.7891L7.39598 20.5892C7.65913 20.326 7.65913 19.8994 7.39598 19.6362C7.13287 19.3731 6.7062 19.3731 6.4431 19.6362Z"
              fill="black"/>
        <path d="M6.4431 19.6362L12.1 25.2931L12.1004 25.2926L6.4431 19.6362ZM4.24314 21.8362L-1.41372 16.1794L-1.41372 16.1794L4.24314 21.8362ZM5.19602 22.7891L-0.46084 17.1323L-0.462772 17.1342L5.19602 22.7891ZM7.39598 20.5892L13.0528 26.246L13.0528 26.246L7.39598 20.5892ZM7.39598 19.6362L1.73863 25.2926L1.73912 25.2931L7.39598 19.6362ZM0.786234 13.9794L-1.41372 16.1794L9.9 27.493L12.1 25.2931L0.786234 13.9794ZM-1.41372 16.1794C-4.80106 19.5667 -4.80106 25.0586 -1.41372 28.446L9.9 17.1323C12.761 19.9933 12.761 24.632 9.9 27.493L-1.41372 16.1794ZM-1.41372 28.446C0.277746 30.1374 2.51123 30.9865 4.71958 30.9865V14.9865C6.58311 14.9865 8.47169 15.704 9.9 17.1323L-1.41372 28.446ZM4.71958 30.9865C6.92587 30.9865 9.16121 30.1388 10.8548 28.444L-0.462772 17.1342C0.967771 15.7027 2.85811 14.9865 4.71958 14.9865V30.9865ZM10.8529 28.446L13.0528 26.246L1.73912 14.9323L-0.46084 17.1323L10.8529 28.446ZM13.0528 26.246C16.4402 22.8587 16.4402 17.3667 13.0528 13.9794L1.73912 25.2931C-1.12192 22.432 -1.12192 17.7934 1.73912 14.9323L13.0528 26.246ZM13.0533 13.9799C9.66591 10.5919 4.17316 10.5919 0.785751 13.9799L12.1004 25.2926C9.23924 28.1543 4.59983 28.1543 1.73863 25.2926L13.0533 13.9799Z"
              fill="black" mask="url(#path-8-inside-4)"/>
    </g>
    <defs>
        <clipPath id="clip0">
            <rect width="23" height="23" fill="white"/>
        </clipPath>
    </defs>
</svg>
