<svg width="24" height="24" viewBox="0 0 170 170" fill="none" xmlns="http://www.w3.org/2000/svg">
<g clip-path="url(#clip0)">
<path d="M166.37 115.698C161.85 111.178 157.326 106.654 152.806 102.125L170.001 84.9382L162.971 77.8999L145.776 95.0996C141.206 90.5297 136.644 85.9681 132.074 81.4024C131.778 81.1021 131.466 80.8603 131.153 80.6602L128.347 77.854L121.292 84.909L138.625 102.242L121.88 118.996L128.914 126.026L145.663 109.276L162.546 126.163L169.601 119.104L167.112 116.619C166.907 116.298 166.67 115.989 166.37 115.698Z" fill="black"/>
<path d="M141.469 61.1672C142.423 61.1672 143.374 61.2464 144.321 61.3089C144.454 60.3666 144.562 59.4201 144.608 58.4652C143.674 41.228 131.407 28.9693 114.183 28.0394C104.075 27.4974 95.6486 32.6552 90.2406 40.2023C84.8367 33.0889 76.4307 28.5898 66.2777 28.0394C49.0863 27.1138 36.715 42.6331 35.8602 58.4652C35.7643 60.5 35.8936 62.4556 36.2105 64.3486C35.1347 64.1943 34.0381 64.0901 32.9206 64.0275C14.3366 63.0268 0.96459 79.8012 0.0431016 96.9051C-0.903405 114.388 13.8863 127.256 29.8893 129.482V129.787H111.422C104.697 122.494 100.552 112.783 100.552 102.075C100.552 79.4843 118.878 61.1672 141.469 61.1672Z" fill="black"/>
</g>
<defs>
<clipPath id="clip0">
<rect width="170" height="170" fill="white"/>
</clipPath>
</defs>
</svg>
