<?xml version="1.0" standalone="no"?>
<!DOCTYPE svg PUBLIC "-//W3C//DTD SVG 20010904//EN"
 "http://www.w3.org/TR/2001/REC-SVG-20010904/DTD/svg10.dtd">
<svg version="1.0" xmlns="http://www.w3.org/2000/svg"
 width="512.000000pt" height="512.000000pt" viewBox="0 0 512.000000 512.000000"
 preserveAspectRatio="xMidYMid meet">
<metadata>
Created by potrace 1.14, written by Peter Selinger 2001-2017
</metadata>
<g transform="translate(0.000000,512.000000) scale(0.100000,-0.100000)"
fill="#000000" stroke="none">
<path d="M0 2560 l0 -2560 2560 0 2560 0 0 2560 0 2560 -2560 0 -2560 0 0
-2560z m3765 1195 c74 -45 99 -101 103 -229 4 -113 -19 -344 -49 -481 -77
-356 -240 -640 -527 -916 l-108 -104 -13 -185 c-14 -206 -21 -245 -53 -285
-12 -15 -122 -94 -245 -176 -244 -162 -261 -169 -333 -131 -49 27 -66 69 -90
232 -28 193 -22 179 -79 178 -27 0 -64 7 -83 16 -19 9 -147 130 -285 269 -218
219 -253 258 -263 295 -6 24 -10 58 -8 75 l3 32 -172 27 c-106 16 -181 33
-198 44 -36 23 -55 64 -55 118 0 41 13 63 153 273 189 283 162 265 440 287
l197 15 128 128 c163 165 318 281 491 368 147 73 388 144 561 164 52 6 109 13
125 15 17 2 93 3 171 2 138 -1 142 -2 189 -31z m-2085 -1705 c12 -12 20 -33
20 -52 0 -28 -18 -51 -143 -175 -118 -118 -148 -143 -172 -143 -39 0 -75 35
-75 74 0 26 21 52 142 173 125 126 147 143 175 143 20 0 41 -8 53 -20z m205
-206 c23 -9 46 -60 40 -87 -4 -13 -120 -137 -259 -275 -224 -224 -255 -252
-284 -252 -42 0 -72 30 -72 73 0 29 26 58 258 290 255 254 272 268 317 251z
m245 -244 c12 -12 20 -33 20 -52 0 -28 -18 -51 -143 -175 -154 -154 -169 -163
-221 -122 -19 15 -26 29 -26 57 0 33 11 47 138 174 128 128 141 138 175 138
24 0 44 -7 57 -20z"/>
<path d="M3355 3628 c-182 -18 -403 -79 -563 -155 -214 -101 -465 -317 -626
-537 -78 -108 -156 -237 -156 -260 0 -6 167 -178 370 -381 l370 -370 53 29
c250 138 492 357 648 589 150 223 234 487 259 812 13 171 7 249 -23 270 -25
17 -179 19 -332 3z m-223 -279 c117 -25 218 -103 266 -207 24 -51 27 -69 27
-162 0 -90 -4 -112 -24 -153 -37 -75 -104 -142 -179 -179 -61 -30 -74 -33
-162 -33 -84 0 -102 3 -158 29 -81 38 -162 123 -192 203 -65 171 8 373 167
460 90 49 163 61 255 42z"/>
<path d="M2988 3194 c-55 -17 -113 -69 -136 -123 -21 -52 -19 -139 6 -188 43
-83 122 -127 218 -121 74 5 130 37 171 99 36 54 44 158 18 210 -29 58 -85 108
-139 124 -60 18 -77 18 -138 -1z"/>
<path d="M1846 2939 c-49 -4 -98 -10 -110 -13 -29 -8 -272 -377 -254 -387 11
-5 218 -38 271 -43 14 -1 26 21 56 99 43 112 83 195 141 290 l40 65 -28 -1
c-15 -1 -67 -5 -116 -10z"/>
<path d="M1937 2513 c-9 -14 -57 -202 -57 -221 0 -9 105 -121 233 -250 l232
-234 55 5 c30 3 88 16 128 29 l72 23 -328 329 c-181 180 -332 324 -335 319z"/>
<path d="M2980 1884 c-56 -39 -217 -119 -315 -155 -49 -18 -91 -34 -93 -35 -4
-2 36 -271 43 -292 5 -12 357 213 382 245 6 8 14 62 18 121 4 59 9 115 11 125
7 23 -4 21 -46 -9z"/>
</g>
</svg>
